<svg width="800" height="800" viewBox="0 0 800 800" fill="none" xmlns="http://www.w3.org/2000/svg">
<circle cx="400" cy="400" r="400" fill="black"/>
<path d="M334.973 527.533L305.588 534.34L285.666 473.744L166.633 472.084L136.916 552.934L73 508.939L198.01 252.611L244.162 248.627L334.973 527.533ZM259.436 394.555L228.225 282.992L185.393 411.488L259.436 394.555ZM275.871 444.525L266.242 415.639L176.926 437.719L171.613 451.166L275.871 444.525ZM153.02 426.762L147.043 419.125C139.074 432.406 131.991 446.407 125.793 461.127C119.595 475.847 114.283 491.342 109.855 507.611L125.129 514.086C127.342 498.923 130.773 484.092 135.422 469.594C140.181 454.984 146.047 440.707 153.02 426.762ZM605.578 527.533L576.193 534.34L556.271 473.744L437.238 472.084L407.521 552.934L343.605 508.939L468.615 252.611L514.768 248.627L605.578 527.533ZM530.041 394.555L498.83 282.992L455.998 411.488L530.041 394.555ZM546.477 444.525L536.848 415.639L447.531 437.719L442.219 451.166L546.477 444.525ZM423.625 426.762L417.648 419.125C409.68 432.406 402.596 446.407 396.398 461.127C390.201 475.847 384.888 491.342 380.461 507.611L395.734 514.086C397.948 498.923 401.379 484.092 406.027 469.594C410.786 454.984 416.652 440.707 423.625 426.762ZM700.705 511.762C700.705 520.173 697.772 527.423 691.906 533.51C686.04 539.486 678.902 542.475 670.49 542.475C662.189 542.475 655.051 539.486 649.074 533.51C643.098 527.423 640.109 520.173 640.109 511.762C640.109 503.35 643.042 496.156 648.908 490.18C654.885 484.092 662.079 481.049 670.49 481.049C678.902 481.049 686.04 484.092 691.906 490.18C697.772 496.156 700.705 503.35 700.705 511.762ZM681.281 507.611C681.281 503.738 679.898 500.251 677.131 497.152C674.475 493.943 671.265 492.338 667.502 492.338C663.85 492.338 660.695 493.943 658.039 497.152C655.383 500.251 654.055 503.738 654.055 507.611C654.055 511.485 655.327 515.027 657.873 518.236C660.529 521.335 663.739 522.885 667.502 522.885C671.376 522.885 674.641 521.335 677.297 518.236C679.953 515.027 681.281 511.485 681.281 507.611Z" fill="white"/>
</svg>
